# xmcd
#
# Track frame offsets:
#	150
#	20313
#	36488
#	54220
#	79048
#	98105
#	110385
#	137263
#	148395
#	167153
#	177115
#
# Disc length: 2652 seconds
#
# Revision: 0
# Processed by: cddbd v1.5.1PL0 Copyright (c) Steve Scherf et al.
# Submitted via: audiograbber 1.83.01
#
DISCID=890a5a0b
DTITLE=Tom Russell - Cowboy Real
DYEAR=1991
DGENRE=Country
TTITLE0=El Llano Estacado
TTITLE1=A Bad Half Hour
TTITLE2=The Basque
TTITLE3=Claude Dallas
TTITLE4=Navajo Rug
TTITLE5=Indian Cowboy
TTITLE6=Gallo Del Cielo
TTITLE7=Rayburn Crane
TTITLE8=Sonora's Death Row
TTITLE9=Zane Grey
TTITLE10=Roanie
EXTD=
EXTT0=
EXTT1=
EXTT2=
EXTT3=
EXTT4=
EXTT5=
EXTT6=
EXTT7=
EXTT8=
EXTT9=
EXTT10=
PLAYORDER=
